PathFileType	4	(X/Y/Z)	C:\Users\Biomechanik\SynologyDrive\AlexP\Athlete_03\Athlete_3_25_03_31\Deadlift_bar_01\marker_experimental.trc
DataRate	CameraRate	NumFrames	NumMarkers	Units	OrigDataRate	OrigDataStartFrame	OrigNumFrames
200.000000	200.000000	4	55	mm	200.000000	1281	1464
Frame#	Time	BL			BR			GLAB			RFHD			LFHD			C7			T6			SPINMOL			SPINM2			SPINM3			T12			BELTOL			BELT2			BELT3			SACROL			SACR2			SACR3			LTHOL			LTH2			LTH3			LSHAOL			LSHA2			LSHA3			LHEE			LTOE			LM5			RTHOL			RTH2			RTH3			RSHAOL			RSHA2			RSHA3			RHEE			RTOE			RM5			STRN			XIPH			LACR			LUAOL			LUA2			LUA3			LLAOL			LLA2			LLA3			LWRR			LWRU			RACR			RUAOL			RUA2			RUA3			RLAOL			RLA2			RLA3			RWRR			RWRU			
		X1	Y1	Z1	X2	Y2	Z2	X3	Y3	Z3	X4	Y4	Z4	X5	Y5	Z5	X6	Y6	Z6	X7	Y7	Z7	X8	Y8	Z8	X9	Y9	Z9	X10	Y10	Z10	X11	Y11	Z11	X12	Y12	Z12	X13	Y13	Z13	X14	Y14	Z14	X15	Y15	Z15	X16	Y16	Z16	X17	Y17	Z17	X18	Y18	Z18	X19	Y19	Z19	X20	Y20	Z20	X21	Y21	Z21	X22	Y22	Z22	X23	Y23	Z23	X24	Y24	Z24	X25	Y25	Z25	X26	Y26	Z26	X27	Y27	Z27	X28	Y28	Z28	X29	Y29	Z29	X30	Y30	Z30	X31	Y31	Z31	X32	Y32	Z32	X33	Y33	Z33	X34	Y34	Z34	X35	Y35	Z35	X36	Y36	Z36	X37	Y37	Z37	X38	Y38	Z38	X39	Y39	Z39	X40	Y40	Z40	X41	Y41	Z41	X42	Y42	Z42	X43	Y43	Z43	X44	Y44	Z44	X45	Y45	Z45	X46	Y46	Z46	X47	Y47	Z47	X48	Y48	Z48	X49	Y49	Z49	X50	Y50	Z50	X51	Y51	Z51	X52	Y52	Z52	X53	Y53	Z53	X54	Y54	Z54	X55	Y55	Z55	

1282	6.405	324.2944946289062	725.6272583007814	-2235.582275390625	307.8942260742188	691.598388671875	-214.1605682373047	309.6830444335938	1619.459716796875	-1192.048583984375	257.5826721191406	1642.449096679688	-1129.473754882812	266.6642150878906	1640.9765625	-1265.67138671875	87.47151947021484	1436.522705078125	-1209.97412109375	67.61671447753906	1257.497436523438	-1217.686157226562	69.62619018554688	1227.029541015625	-1239.7001953125	64.04279327392578	1217.200927734375	-1190.516235351562	80.28664398193359	1163.128784179688	-1225.835083007812	93.96994781494141	1116.50634765625	-1222.446655273438	69.30902099609375	1093.158935546875	-1237.903930664062	69.08289337158203	1089.451416015625	-1187.670532226562	61.7520637512207	1030.241333007812	-1217.28125	56.78918838500977	968.9037475585939	-1239.933715820312	58.21001434326172	964.9651489257814	-1188.582641601562	37.06939315795898	909.4050292968751	-1217.79931640625	144.8962249755859	685.7234497070314	-1401.841552734375	95.87772369384766	631.6390991210939	-1369.659790039062	142.5672302246094	625.4082031250001	-1387.631469726562	128.6823120117188	326.9006652832032	-1402.404663085938	83.75531005859375	261.9466857910157	-1390.654052734375	133.0209503173828	265.1110839843751	-1399.269409179688	77.21017456054688	68.66114807128915	-1317.684814453125	293.7486877441406	48.43232727050789	-1332.524169921875	242.2545471191406	29.05584526062021	-1431.830688476562	130.16552734375	697.4457397460939	-1029.835327148438	184.8138275146484	641.7636108398439	-1015.96337890625	139.4849090576172	636.8470458984376	-1035.570556640625	111.2689666748047	343.8260803222657	-1022.140319824219	146.3879089355469	273.7719726562501	-1015.757202148438	100.83203125	282.8588562011719	-1033.160522460938	79.55359649658203	61.34074783325202	-1119.1357421875	292.0376586914062	48.17103958129889	-1095.502685546875	234.1767425537109	38.65486526489264	-998.5955810546875	273.1128845214844	1370.101806640625	-1208.932006835938	332.1732482910156	1242.937255859375	-1208.294799804688	181.9037628173828	1398.680786132812	-1389.285522460938	223.7369384765625	1244.7724609375	-1492.400146484375	228.7752380371094	1181.843627929688	-1508.622680664062	268.2677612304688	1198.536743164062	-1479.992309570312	284.6327514648438	982.6144409179689	-1512.476196289062	245.7163848876953	913.9868774414064	-1506.020141601562	295.0626220703125	921.5134887695314	-1512.327392578125	332.9711303710938	820.0827026367189	-1513.6025390625	322.0046997070312	814.5822753906251	-1435.1103515625	181.4454345703125	1394.633911132812	-1036.514038085938	214.91943359375	1239.010375976562	-942.5171508789061	254.5889129638672	1185.691284179688	-951.6959838867186	210.0774230957031	1175.5380859375	-925.6815795898436	267.7841186523438	962.1998901367189	-932.2631835937499	327.8814697265625	910.3123168945312	-922.7212524414062	279.1913146972656	900.3881225585939	-931.2656860351562	328.6392517089844	817.8272705078125	-927.7152709960938	310.1526184082031	795.7014160156251	-1003.039672851562	
1283	6.41	324.1496276855469	725.5746459960939	-2235.553466796875	307.901611328125	691.5856323242188	-214.1272430419922	309.6953430175781	1619.456298828125	-1192.035766601562	257.5859069824219	1642.4462890625	-1129.470336914062	266.6919250488281	1640.970581054688	-1265.668212890625	87.47898101806641	1436.531494140625	-1209.995849609375	67.60739135742188	1257.511352539062	-1217.710693359375	69.62565612792969	1227.033081054688	-1239.723266601562	64.02365875244141	1217.196044921875	-1190.537841796875	80.26771545410156	1163.137573242188	-1225.859497070312	93.94458770751953	1116.516967773438	-1222.472900390625	69.31988525390625	1093.174438476562	-1237.91748046875	69.05553436279297	1089.457763671875	-1187.702392578125	61.74357223510742	1030.253295898438	-1217.29833984375	56.76369094848633	968.9065551757814	-1239.954956054688	58.15883255004883	964.9685668945314	-1188.60693359375	37.04080200195312	909.4033813476564	-1217.825561523438	144.899169921875	685.7224121093751	-1401.840942382812	95.87361145019531	631.6291503906251	-1369.655883789062	142.5655212402344	625.4009399414064	-1387.637573242188	128.6866455078125	326.9010620117189	-1402.411743164062	83.76223754882812	261.9432067871094	-1390.663696289062	133.0272827148438	265.1073303222657	-1399.276611328125	77.20857238769531	68.65965270996102	-1317.6884765625	293.7495727539062	48.43343734741219	-1332.521362304688	242.2554321289062	29.05546760559091	-1431.830810546875	130.1333923339844	697.4411621093751	-1029.853515625	184.7846374511719	641.7660522460939	-1015.973815917969	139.4607238769531	636.8459472656251	-1035.5859375	111.2609710693359	343.8243408203126	-1022.151672363281	146.3807373046875	273.7727355957032	-1015.763122558594	100.8260803222656	282.8587036132813	-1033.17138671875	79.55892944335938	61.34026718139656	-1119.131225585938	292.0372009277344	48.17303466796881	-1095.503662109375	234.1763763427734	38.65693283081061	-998.595947265625	273.1162109375	1370.097290039062	-1208.92431640625	332.1493530273438	1242.91552734375	-1208.279296875	181.9563751220703	1398.684326171875	-1389.292236328125	223.7925872802734	1244.770141601562	-1492.390747070312	228.8028564453125	1181.848266601562	-1508.61279296875	268.3058776855469	1198.525756835938	-1479.979370117188	284.6383056640625	982.5896606445314	-1512.449096679688	245.7068939208984	913.9800415039064	-1506.004150390625	295.0422973632812	921.4893798828126	-1512.306030273438	332.928955078125	820.0538330078126	-1513.586181640625	321.94189453125	814.5454101562501	-1435.08203125	181.4277496337891	1394.629272460938	-1036.515991210938	214.8665008544922	1238.982666015625	-942.5125732421874	254.5588073730469	1185.682495117188	-951.6222534179686	210.0225524902344	1175.524658203125	-925.6832885742186	267.7220153808594	962.1800537109376	-932.2554931640624	327.8222045898438	910.3015747070312	-922.7149047851562	279.1321105957031	900.3729858398439	-931.2566528320312	328.5846862792969	817.8156127929688	-927.6947631835938	310.0792846679688	795.6956176757814	-1003.015258789062	
1284	6.415	324.00634765625	725.5223999023439	-2235.519775390625	307.9130249023438	691.5709838867188	-214.0920257568359	309.7082824707031	1619.453247070312	-1192.021118164062	257.58984375	1642.442749023438	-1129.465942382812	266.7193603515625	1640.966064453125	-1265.660766601562	87.48657989501953	1436.54052734375	-1210.01611328125	67.59767150878906	1257.526123046875	-1217.734619140625	69.62228393554688	1227.039306640625	-1239.746215820312	64.00661468505859	1217.192016601562	-1190.557861328125	80.24822235107422	1163.147583007812	-1225.883178710938	93.91856384277344	1116.528076171875	-1222.499877929688	69.32949066162109	1093.189819335938	-1237.932495117188	69.02664184570312	1089.464233398438	-1187.736694335938	61.7322998046875	1030.265869140625	-1217.318725585938	56.73674774169922	968.9093627929689	-1239.978637695312	58.10216903686523	964.9731445312501	-1188.63330078125	37.0102653503418	909.4008178710939	-1217.854248046875	144.9018859863281	685.7209472656251	-1401.843383789062	95.86866760253906	631.6194458007814	-1369.6533203125	142.563720703125	625.3936157226564	-1387.644775390625	128.6903839111328	326.9011230468751	-1402.41943359375	83.76828002929688	261.9396667480469	-1390.67333984375	133.0328521728516	265.1033325195314	-1399.284301757812	77.20703887939453	68.65811920166024	-1317.6923828125	293.7502136230469	48.43435287475594	-1332.519165039062	242.2559967041016	29.05576705932626	-1431.8310546875	130.1016693115234	697.4366455078126	-1029.87255859375	184.7562561035156	641.7682495117189	-1015.985534667969	139.4369201660156	636.8439941406251	-1035.602783203125	111.2552947998047	343.8229675292969	-1022.163818359375	146.3756713867188	273.7731933593751	-1015.7705078125	100.8224182128906	282.8588867187501	-1033.183227539062	79.5643310546875	61.33992385864265	-1119.127319335938	292.0369567871094	48.17470550537116	-1095.505126953125	234.1762847900391	38.65921020507819	-998.5968017578125	273.1194763183594	1370.09326171875	-1208.916870117188	332.1260986328125	1242.894897460938	-1208.264526367188	182.0061645507812	1398.68798828125	-1389.29833984375	223.8455963134766	1244.767700195312	-1492.380737304688	228.8339691162109	1181.849731445312	-1508.60986328125	268.3419189453125	1198.511962890625	-1479.962280273438	284.6531066894531	982.5609741210939	-1512.417602539062	245.7041473388672	913.9708862304689	-1505.982421875	295.022216796875	921.4660034179689	-1512.283447265625	332.8853759765625	820.0247192382814	-1513.56494140625	321.8801574707031	814.5093383789064	-1435.052490234375	181.4118804931641	1394.625244140625	-1036.517456054688	214.8133392333984	1238.954467773438	-942.5090942382811	254.5309906005859	1185.676513671875	-951.5416870117186	209.9695434570312	1175.512817382812	-925.6864013671874	267.6612854003906	962.1609497070314	-932.2464599609374	327.76318359375	910.285400390625	-922.7032470703125	279.0749816894531	900.3580932617189	-931.2463989257812	328.5337829589844	817.806396484375	-927.676025390625	310.0120544433594	795.6876220703126	-1002.990966796875	
1285	6.42	323.8648071289062	725.4709472656251	-2235.482421875	307.9282836914062	691.5546875	-214.0552215576172	309.7216796875	1619.450439453125	-1192.004760742188	257.5944213867188	1642.438598632812	-1129.460693359375	266.7463073730469	1640.963134765625	-1265.6494140625	87.49427795410156	1436.549438476562	-1210.034790039062	67.58753967285156	1257.54150390625	-1217.757690429688	69.61527252197266	1227.048950195312	-1239.76904296875	63.99151992797852	1217.189453125	-1190.576416015625	80.22811126708984	1163.158813476562	-1225.905639648438	93.89231109619141	1116.53955078125	-1222.527465820312	69.33760070800781	1093.204956054688	-1237.94921875	68.99651336669922	1089.471069335938	-1187.773071289062	61.71797943115234	1030.279418945312	-1217.342407226562	56.70815277099609	968.9119873046876	-1240.005126953125	58.03987884521484	964.9788208007814	-1188.661865234375	36.97786331176758	909.3971557617189	-1217.885498046875	144.9036560058594	685.7192993164064	-1401.849487304688	95.86279296875	631.6101074218751	-1369.652709960938	142.5617218017578	625.3862304687501	-1387.6533203125	128.6935729980469	326.9007263183595	-1402.427490234375	83.77351379394531	261.9360046386719	-1390.682983398438	133.0377197265625	265.0990600585939	-1399.292236328125	77.20555114746094	68.65652465820321	-1317.6962890625	293.7506408691406	48.43509292602547	-1332.517456054688	242.2562408447266	29.05669784545907	-1431.831665039062	130.0702514648438	697.4320068359376	-1029.892700195312	184.7286529541016	641.7703247070314	-1015.998596191406	139.4133758544922	636.8411254882814	-1035.621337890625	111.2518997192383	343.8218383789063	-1022.176696777344	146.3726959228516	273.7732849121094	-1015.779296875	100.8210144042969	282.8593444824219	-1033.19580078125	79.56970977783203	61.33961105346687	-1119.124145507812	292.0369262695312	48.17601776123053	-1095.50732421875	234.176513671875	38.66157913208014	-998.5982666015625	273.1226806640625	1370.089721679688	-1208.90966796875	332.1035461425781	1242.875244140625	-1208.250366210938	182.0528259277344	1398.691772460938	-1389.303833007812	223.8953247070312	1244.764892578125	-1492.370361328125	228.8670196533203	1181.848266601562	-1508.61181640625	268.3759765625	1198.495971679688	-1479.94140625	284.6764526367188	982.5285034179689	-1512.382690429688	245.7063140869141	913.9591064453126	-1505.955810546875	295.002197265625	921.4432983398439	-1512.259887695312	332.8402099609375	819.9953002929689	-1513.538940429688	321.8195495605469	814.4744262695314	-1435.02197265625	181.3978271484375	1394.621948242188	-1036.5185546875	214.7601928710938	1238.925903320312	-942.5067138671874	254.5051116943359	1185.673095703125	-951.4564208984374	209.9185028076172	1175.50244140625	-925.6904296874999	267.6021423339844	962.1428833007814	-932.2359008789061	327.7048034667969	910.2634887695312	-922.6861572265625	279.0199279785156	900.3433227539064	-931.2344970703125	328.4864196777344	817.7994995117188	-927.658935546875	309.9500427246094	795.6776123046876	-1002.96630859375	
